# xmcd
#
# Track frame offsets:
#	150
#	4030
#	24301
#	44167
#	69299
#	90031
#	113256
#	134478
#	152500
#	173592
#	259010
#	287532
#
# Disc length: 4147 seconds
#
# Revision: 1
# Processed by: cddbd v1.5.2PL0 Copyright (c) Steve Scherf et al.
# Submitted via: audiograbber 1.83.01
#
DISCID=8610310c
DTITLE=Pur (LC 29132) -  Schein and Sein - Live Aus Berlin - CD 1
DYEAR=2013
DGENRE=Pop
TTITLE0=Intro - Live Aus Berlin
TTITLE1=Schein and Sein ( Live aus Berlin 2013)
TTITLE2=Ich Bin Dein Lied ( Live aus Berlin 2013)
TTITLE3=Jedes Mal ( Live aus Berlin 2013)
TTITLE4=Der Bestmoegliche Versuch ( Live aus Berlin 2013)
TTITLE5=Leonie Tamina ( Live aus Berlin 2013)
TTITLE6=Freunde ( Live aus Berlin 2013)
TTITLE7=Du Luegst ( Live aus Berlin 2013)
TTITLE8=Ganz Egal ( Live aus Berlin 2013)
TTITLE9=Medley: Wenn Sie Diesen Tango Hoert - Seiltaenzertraum - Heimlich - Her
TTITLE9=zbeben ( Live aus Berlin 2013)
TTITLE10=Kein Krieg ( Live aus Berlin 2013)
TTITLE11=Drachen Sollen Fliegen ( Live aus Berlin 2013)
EXTD=
EXTT0=
EXTT1=
EXTT2=
EXTT3=
EXTT4=
EXTT5=
EXTT6=
EXTT7=
EXTT8=
EXTT9=
EXTT10=
EXTT11=
PLAYORDER=
